<mxfile host="app.diagrams.net" modified="2024-05-09T11:36:20.909Z" agent="Mozilla/5.0 (Windows NT 10.0; Win64; x64) AppleWebKit/537.36 (KHTML, like Gecko) Chrome/124.0.0.0 Safari/537.36" etag="sEOu27gVSXMTsdXA6EsH" version="24.3.1" type="device">
  <diagram name="Page-1" id="e7e014a7-5840-1c2e-5031-d8a46d1fe8dd">
    <mxGraphModel dx="1596" dy="763" grid="1" gridSize="10" guides="1" tooltips="1" connect="1" arrows="1" fold="1" page="1" pageScale="1" pageWidth="1169" pageHeight="826" background="none" math="0" shadow="0">
      <root>
        <mxCell id="0" />
        <mxCell id="1" parent="0" />
        <mxCell id="2" value="User" style="swimlane;whiteSpace=wrap;strokeColor=#000000;" parent="1" vertex="1">
          <mxGeometry x="303" y="128" width="280" height="570" as="geometry" />
        </mxCell>
        <mxCell id="5" value="" style="ellipse;shape=startState;fillColor=#000000;strokeColor=#000000;" parent="2" vertex="1">
          <mxGeometry x="125" y="40" width="30" height="30" as="geometry" />
        </mxCell>
        <mxCell id="UAwBAEeljMlZIjzhfXZ5-45" value="Press Create button" style="rounded=1;whiteSpace=wrap;html=1;arcSize=40;fontColor=#000000;fillColor=#FFFFFF;strokeColor=#000000;shadow=0;" vertex="1" parent="2">
          <mxGeometry x="80" y="112" width="120" height="40" as="geometry" />
        </mxCell>
        <mxCell id="UAwBAEeljMlZIjzhfXZ5-46" value="" style="endArrow=classic;html=1;rounded=0;entryX=0.5;entryY=0;entryDx=0;entryDy=0;exitX=0.5;exitY=1;exitDx=0;exitDy=0;" edge="1" parent="2" target="UAwBAEeljMlZIjzhfXZ5-45" source="5">
          <mxGeometry width="50" height="50" relative="1" as="geometry">
            <mxPoint x="115" y="112" as="sourcePoint" />
            <mxPoint x="70.5" y="84" as="targetPoint" />
          </mxGeometry>
        </mxCell>
        <mxCell id="UAwBAEeljMlZIjzhfXZ5-43" value="fill all required&amp;nbsp;&lt;div&gt;information&lt;/div&gt;" style="rounded=1;whiteSpace=wrap;html=1;arcSize=40;fontColor=#000000;fillColor=#FFFFFF;strokeColor=#000000;shadow=0;" vertex="1" parent="2">
          <mxGeometry x="80" y="202" width="120" height="40" as="geometry" />
        </mxCell>
        <mxCell id="UAwBAEeljMlZIjzhfXZ5-44" value="" style="endArrow=classic;html=1;rounded=0;entryX=0.5;entryY=0;entryDx=0;entryDy=0;exitX=0.5;exitY=1;exitDx=0;exitDy=0;" edge="1" parent="2" target="UAwBAEeljMlZIjzhfXZ5-43" source="UAwBAEeljMlZIjzhfXZ5-45">
          <mxGeometry width="50" height="50" relative="1" as="geometry">
            <mxPoint x="290.5" y="140" as="sourcePoint" />
            <mxPoint x="246" y="112" as="targetPoint" />
          </mxGeometry>
        </mxCell>
        <mxCell id="UAwBAEeljMlZIjzhfXZ5-53" value="Select wanted settings" style="rounded=1;whiteSpace=wrap;html=1;arcSize=40;fontColor=#000000;fillColor=#FFFFFF;strokeColor=#000000;shadow=0;" vertex="1" parent="2">
          <mxGeometry x="80" y="302" width="120" height="40" as="geometry" />
        </mxCell>
        <mxCell id="3" value="System" style="swimlane;whiteSpace=wrap;strokeColor=#000000;" parent="1" vertex="1">
          <mxGeometry x="585" y="128" width="280" height="570" as="geometry" />
        </mxCell>
        <mxCell id="38" value="" style="ellipse;shape=endState;fillColor=#000000;strokeColor=#000000;" parent="3" vertex="1">
          <mxGeometry x="125" y="492" width="30" height="30" as="geometry" />
        </mxCell>
        <mxCell id="UAwBAEeljMlZIjzhfXZ5-47" value="Create portfolio" style="rounded=1;whiteSpace=wrap;html=1;arcSize=40;fontColor=#000000;fillColor=#FFFFFF;strokeColor=#000000;shadow=0;" vertex="1" parent="3">
          <mxGeometry x="80.5" y="202" width="120" height="40" as="geometry" />
        </mxCell>
        <mxCell id="UAwBAEeljMlZIjzhfXZ5-41" value="Display bot settings" style="rounded=1;whiteSpace=wrap;html=1;arcSize=40;fontColor=#000000;fillColor=#FFFFFF;strokeColor=#000000;shadow=0;" vertex="1" parent="3">
          <mxGeometry x="80" y="302" width="120" height="40" as="geometry" />
        </mxCell>
        <mxCell id="UAwBAEeljMlZIjzhfXZ5-50" value="" style="endArrow=classic;html=1;rounded=0;entryX=0.5;entryY=0;entryDx=0;entryDy=0;exitX=0.5;exitY=1;exitDx=0;exitDy=0;" edge="1" parent="3" source="UAwBAEeljMlZIjzhfXZ5-47" target="UAwBAEeljMlZIjzhfXZ5-41">
          <mxGeometry width="50" height="50" relative="1" as="geometry">
            <mxPoint x="48" y="292" as="sourcePoint" />
            <mxPoint x="208" y="292" as="targetPoint" />
          </mxGeometry>
        </mxCell>
        <mxCell id="UAwBAEeljMlZIjzhfXZ5-52" value="Save settings" style="rounded=1;whiteSpace=wrap;html=1;arcSize=40;fontColor=#000000;fillColor=#FFFFFF;strokeColor=#000000;shadow=0;" vertex="1" parent="3">
          <mxGeometry x="80" y="392" width="120" height="40" as="geometry" />
        </mxCell>
        <mxCell id="UAwBAEeljMlZIjzhfXZ5-55" value="" style="endArrow=classic;html=1;rounded=0;exitX=0.5;exitY=1;exitDx=0;exitDy=0;entryX=0.5;entryY=0;entryDx=0;entryDy=0;" edge="1" parent="3" source="UAwBAEeljMlZIjzhfXZ5-52" target="38">
          <mxGeometry width="50" height="50" relative="1" as="geometry">
            <mxPoint x="200" y="462" as="sourcePoint" />
            <mxPoint x="38" y="462" as="targetPoint" />
          </mxGeometry>
        </mxCell>
        <mxCell id="UAwBAEeljMlZIjzhfXZ5-48" value="" style="endArrow=classic;html=1;rounded=0;entryX=0;entryY=0.5;entryDx=0;entryDy=0;exitX=1;exitY=0.5;exitDx=0;exitDy=0;" edge="1" parent="1" target="UAwBAEeljMlZIjzhfXZ5-47" source="UAwBAEeljMlZIjzhfXZ5-43">
          <mxGeometry width="50" height="50" relative="1" as="geometry">
            <mxPoint x="612.5" y="288" as="sourcePoint" />
            <mxPoint x="568" y="260" as="targetPoint" />
          </mxGeometry>
        </mxCell>
        <mxCell id="UAwBAEeljMlZIjzhfXZ5-49" value="" style="endArrow=classic;html=1;rounded=0;exitX=0;exitY=0.5;exitDx=0;exitDy=0;entryX=1;entryY=0.5;entryDx=0;entryDy=0;" edge="1" parent="1" source="UAwBAEeljMlZIjzhfXZ5-41" target="UAwBAEeljMlZIjzhfXZ5-53">
          <mxGeometry width="50" height="50" relative="1" as="geometry">
            <mxPoint x="513" y="360" as="sourcePoint" />
            <mxPoint x="550" y="450" as="targetPoint" />
          </mxGeometry>
        </mxCell>
        <mxCell id="UAwBAEeljMlZIjzhfXZ5-54" value="" style="endArrow=classic;html=1;rounded=0;exitX=0.475;exitY=0.999;exitDx=0;exitDy=0;entryX=0;entryY=0.5;entryDx=0;entryDy=0;exitPerimeter=0;" edge="1" parent="1" source="UAwBAEeljMlZIjzhfXZ5-53" target="UAwBAEeljMlZIjzhfXZ5-52">
          <mxGeometry width="50" height="50" relative="1" as="geometry">
            <mxPoint x="500" y="550" as="sourcePoint" />
            <mxPoint x="550" y="500" as="targetPoint" />
            <Array as="points">
              <mxPoint x="440" y="540" />
            </Array>
          </mxGeometry>
        </mxCell>
      </root>
    </mxGraphModel>
  </diagram>
</mxfile>
